<?xml version="1.0" encoding="UTF-8"?>
<svg xmlns="http://www.w3.org/2000/svg" xmlns:xlink="http://www.w3.org/1999/xlink" width="256pt" height="47pt" viewBox="0 0 256 47" version="1.1">
<g id="surface1">
<path style=" stroke:none;fill-rule:nonzero;fill:rgb(0%,0%,0%);fill-opacity:1;" d="M 156.011719 4.851562 C 155.921875 4.910156 123.398438 5 83.683594 5.027344 C 43.996094 5.054688 9.695312 5.113281 7.511719 5.171875 L 3.492188 5.289062 L 3.492188 44.71875 L 88.75 44.777344 C 135.628906 44.808594 190.894531 44.835938 211.539062 44.835938 L 249.097656 44.867188 L 249.1875 24.757812 L 249.246094 4.648438 L 202.6875 4.675781 C 177.09375 4.707031 156.070312 4.765625 156.011719 4.851562 Z M 85.3125 6.519531 C 89.710938 6.519531 95.011719 6.429688 97.105469 6.402344 L 100.890625 6.285156 L 101.09375 8.039062 C 101.210938 8.972656 101.300781 17.246094 101.242188 26.394531 L 101.183594 43.023438 L 53.371094 43.054688 C 27.078125 43.082031 5.472656 42.996094 5.328125 42.847656 C 5.210938 42.734375 5.09375 34.488281 5.066406 24.523438 L 5.039062 6.460938 L 8.414062 6.34375 C 10.277344 6.285156 26.527344 6.3125 44.550781 6.402344 C 62.574219 6.488281 80.917969 6.546875 85.3125 6.519531 Z M 200.472656 14.351562 C 199.921875 16.046875 201.839844 16.863281 202.453125 15.199219 C 203.007812 13.707031 204.113281 13.707031 204.113281 15.226562 C 204.113281 15.929688 204.230469 16.074219 204.839844 16.074219 C 205.421875 16.074219 205.570312 15.929688 205.570312 15.375 C 205.570312 14.292969 205.859375 13.738281 206.441406 13.738281 C 207.082031 13.738281 207.285156 14.496094 207.113281 16.191406 L 206.9375 17.539062 L 205.597656 17.566406 C 204.871094 17.566406 203.707031 17.566406 203.035156 17.539062 C 202.335938 17.507812 201.785156 17.625 201.785156 17.769531 C 201.785156 18.09375 202.367188 18.179688 204.929688 18.238281 C 206.851562 18.269531 207.023438 18.296875 207.023438 18.882812 C 207.023438 19.378906 206.734375 19.582031 205.511719 19.90625 C 203.441406 20.460938 203.386719 20.984375 205.335938 21.101562 C 206.675781 21.191406 206.878906 21.277344 206.964844 21.832031 C 207.054688 22.417969 206.9375 22.507812 206.09375 22.535156 C 205.308594 22.566406 205.277344 22.625 205.859375 22.710938 C 206.90625 22.886719 207.316406 23.585938 207.316406 25.195312 C 207.316406 27.417969 206.761719 27.765625 203.355469 27.765625 C 200.851562 27.765625 200.589844 27.824219 200.675781 28.265625 C 200.765625 28.730469 201.054688 28.789062 203.007812 28.671875 C 205.625 28.554688 206.90625 28.789062 207.140625 29.433594 C 207.492188 30.339844 206.792969 30.542969 203.851562 30.457031 C 202.277344 30.398438 200.910156 30.457031 200.824219 30.601562 C 200.765625 30.71875 200.589844 31.683594 200.472656 32.679688 C 200.269531 34.519531 200.269531 34.546875 200.9375 34.429688 C 201.492188 34.375 201.667969 34.140625 201.726562 33.410156 C 201.871094 32.0625 202.335938 31.832031 204.609375 31.917969 L 206.585938 32.003906 L 206.675781 33.671875 C 206.734375 35.046875 206.675781 35.367188 206.296875 35.367188 C 205.976562 35.367188 205.859375 35.074219 205.859375 34.34375 C 205.859375 32.503906 204.027344 32.621094 203.9375 34.460938 C 203.910156 34.988281 203.792969 35.484375 203.675781 35.601562 C 203.589844 35.71875 202.539062 35.835938 201.347656 35.894531 C 198.667969 36.039062 198.464844 35.777344 198.726562 32.503906 C 198.84375 31.273438 198.960938 28.703125 198.988281 26.832031 C 199.015625 24.933594 199.164062 23.265625 199.335938 23.089844 C 199.484375 22.945312 200.648438 22.769531 201.929688 22.710938 L 204.257812 22.625 L 201.726562 22.566406 L 199.222656 22.507812 L 199.105469 20.984375 C 198.988281 19.117188 199.367188 18.296875 200.414062 18.179688 C 200.851562 18.121094 201.199219 17.945312 201.199219 17.800781 C 201.199219 17.625 201.085938 17.566406 200.9375 17.652344 C 200.792969 17.769531 200.355469 17.710938 199.949219 17.566406 C 198.988281 17.1875 198.550781 14.847656 199.308594 14.03125 C 199.921875 13.359375 200.707031 13.589844 200.472656 14.351562 Z M 149.925781 14 C 150.390625 14.265625 150.421875 14.847656 150.304688 21.628906 C 150.1875 29.578125 150.273438 30.71875 151.148438 31.597656 C 151.964844 32.414062 154.378906 32.210938 156.011719 31.1875 C 156.5625 30.808594 156.476562 18.003906 155.894531 16.894531 C 155.28125 15.695312 153.449219 15.402344 153.449219 16.515625 C 153.449219 16.71875 153.796875 16.953125 154.234375 17.011719 C 154.789062 17.070312 155.167969 17.363281 155.457031 17.945312 C 156.535156 20.253906 153.039062 21.890625 151.847656 19.582031 C 150.855469 17.652344 151.585938 15.726562 153.710938 14.671875 C 154.875 14.089844 155.429688 14 157.671875 14.089844 L 160.292969 14.175781 L 160.4375 23.820312 C 160.582031 33.292969 160.582031 33.496094 161.253906 34.546875 C 161.628906 35.164062 161.863281 35.746094 161.777344 35.894531 C 161.6875 36.039062 160.640625 36.15625 159.417969 36.183594 C 157.410156 36.242188 157.148438 36.183594 156.5625 35.542969 C 156.039062 34.988281 155.808594 34.898438 155.371094 35.132812 C 154.4375 35.660156 151.90625 36.242188 150.507812 36.242188 C 149.050781 36.242188 147.652344 35.484375 146.664062 34.167969 C 145.90625 33.117188 145.675781 30.574219 145.964844 26.746094 C 146.082031 24.960938 146.226562 22.007812 146.257812 20.167969 C 146.316406 17.1875 146.226562 16.660156 145.675781 15.550781 C 145.296875 14.878906 145.003906 14.234375 145.003906 14.175781 C 145.003906 14.117188 145.878906 14 146.984375 13.941406 C 148.0625 13.882812 149.050781 13.824219 149.167969 13.796875 C 149.3125 13.765625 149.632812 13.855469 149.925781 14 Z M 187.226562 13.972656 C 187.226562 14.058594 186.378906 15.257812 185.332031 16.660156 C 184.285156 18.0625 183.441406 19.378906 183.441406 19.582031 C 183.441406 19.757812 183.175781 20.285156 182.828125 20.695312 L 182.214844 21.484375 L 183.527344 21.660156 C 185.128906 21.921875 185.914062 22.332031 186.527344 23.238281 C 186.933594 23.878906 186.960938 24.609375 186.789062 28.878906 C 186.46875 36.476562 186.554688 36.390625 177.996094 36.097656 L 172.082031 35.894531 L 172.082031 32.707031 C 172.082031 29.230469 172.347656 28.789062 173.394531 30.457031 C 174.121094 31.625 175.460938 32.09375 177.964844 32.121094 C 179.945312 32.152344 181.371094 31.800781 181.75 31.1875 C 182.128906 30.601562 182.011719 27.328125 181.605469 26.773438 C 181.167969 26.160156 179.042969 26.21875 178.839844 26.859375 C 178.75 27.125 178.898438 27.183594 179.332031 27.035156 C 179.769531 26.917969 180.148438 27.066406 180.671875 27.59375 C 181.605469 28.527344 181.605469 29.257812 180.644531 30.222656 C 179.625 31.214844 178.257812 31.246094 177.324219 30.25 C 176.742188 29.636719 176.683594 29.347656 176.828125 27.941406 L 176.976562 26.335938 L 175.199219 26.128906 C 173.917969 25.984375 173.25 25.75 172.753906 25.253906 C 172.113281 24.609375 172.082031 24.375 172.082031 20.3125 C 172.082031 17.859375 172.230469 15.785156 172.402344 15.460938 C 172.550781 15.140625 173.132812 14.613281 173.625 14.292969 C 174.5 13.765625 175.054688 13.738281 180.90625 13.796875 C 184.371094 13.824219 187.226562 13.914062 187.226562 13.972656 Z M 225.078125 14.320312 C 225.078125 14.644531 224.902344 14.90625 224.699219 14.90625 C 223.941406 14.90625 223.621094 16.367188 223.621094 19.730469 C 223.621094 21.570312 223.707031 23.089844 223.855469 23.089844 C 224.085938 23.089844 225.746094 20.519531 227.261719 17.710938 C 228.191406 16.046875 228.308594 15.609375 228.046875 15.167969 C 227.84375 14.878906 227.699219 14.527344 227.699219 14.410156 C 227.699219 14.265625 229.09375 14.148438 230.785156 14.117188 L 233.839844 14.03125 L 232.238281 15.578125 C 231.367188 16.425781 230.550781 17.480469 230.433594 17.945312 C 230.054688 19.496094 232.007812 24.609375 236.054688 32.734375 L 237.597656 35.804688 L 234.480469 35.894531 C 232.765625 35.921875 231.222656 35.921875 231.015625 35.835938 C 230.753906 35.746094 230.695312 35.367188 230.785156 34.722656 C 230.960938 33.640625 230.492188 31.742188 229.183594 28.207031 C 227.8125 24.464844 227.171875 23.089844 226.765625 23.089844 C 226.359375 23.089844 225.804688 23.851562 225.339844 25.050781 C 225.078125 25.78125 225.105469 25.78125 225.949219 25.605469 C 226.679688 25.488281 227 25.574219 227.582031 26.160156 C 229.328125 27.914062 227.40625 30.777344 224.960938 30.078125 C 224.464844 29.929688 223.972656 29.8125 223.855469 29.8125 C 223.386719 29.8125 223.652344 32.910156 224.203125 34.167969 C 224.523438 34.871094 224.785156 35.542969 224.785156 35.6875 C 224.785156 35.835938 223.359375 35.953125 221.582031 35.953125 C 219.835938 35.953125 218.378906 35.894531 218.378906 35.835938 C 218.378906 35.777344 218.640625 35.164062 218.960938 34.460938 C 219.429688 33.410156 219.546875 32.53125 219.546875 29.578125 C 219.546875 27.503906 219.429688 26.015625 219.253906 26.015625 C 219.109375 26.015625 218.933594 23.820312 218.875 20.664062 C 218.847656 17.742188 218.671875 15.054688 218.554688 14.703125 C 218.265625 13.914062 218.527344 13.855469 222.253906 13.765625 C 224.902344 13.738281 225.078125 13.765625 225.078125 14.320312 Z M 121.855469 15.929688 C 122.699219 18.238281 124.273438 21.335938 124.5625 21.335938 C 124.710938 21.335938 125.464844 20.050781 126.253906 18.472656 C 127.039062 16.921875 127.855469 15.460938 128.058594 15.257812 C 128.234375 15.054688 128.40625 14.730469 128.40625 14.585938 C 128.40625 14.4375 129.457031 14.320312 130.738281 14.320312 C 133.039062 14.320312 133.386719 14.46875 132.71875 15.140625 C 132.25 15.609375 132.078125 21.101562 132.453125 25.28125 C 132.746094 28.820312 133.269531 31.742188 134.027344 34.257812 L 134.464844 35.660156 L 133.707031 35.6875 C 133.269531 35.6875 132.019531 35.777344 130.941406 35.835938 L 128.933594 35.980469 L 129.164062 34.722656 C 129.457031 33.027344 129.339844 30.136719 128.84375 25.722656 C 128.613281 23.703125 128.40625 21.980469 128.40625 21.832031 C 128.40625 21.25 127.679688 21.804688 126.195312 23.585938 C 124.535156 25.632812 123.894531 26.832031 123.660156 28.351562 C 123.488281 29.347656 123.660156 29.402344 124.828125 28.730469 C 125.554688 28.324219 125.757812 28.324219 126.515625 28.671875 C 127.242188 29.023438 127.386719 29.289062 127.476562 30.308594 C 127.679688 33 124.710938 34.050781 122.699219 32.035156 C 121.625 30.953125 121.507812 30.308594 122.03125 28.207031 C 122.351562 26.976562 122.292969 26.746094 121.390625 24.84375 C 120.488281 23.003906 120.023438 22.417969 119.933594 23.003906 C 119.761719 23.910156 119.671875 24.933594 119.441406 28.789062 C 119.175781 32.355469 119.207031 33.378906 119.554688 34.34375 C 119.761719 34.988281 119.964844 35.601562 119.964844 35.71875 C 119.964844 35.863281 118.652344 35.953125 117.050781 35.953125 C 115.449219 35.953125 114.140625 35.894531 114.140625 35.804688 C 114.140625 35.746094 114.460938 34.722656 114.839844 33.554688 C 115.597656 31.246094 116.003906 28.878906 116.46875 23.820312 C 116.933594 18.792969 116.847656 16.691406 116.179688 15.550781 C 115.859375 15.023438 115.597656 14.46875 115.597656 14.292969 C 115.597656 14.117188 116.644531 14.03125 118.390625 14.089844 L 121.1875 14.175781 Z M 121.855469 15.929688 "/>
<path style=" stroke:none;fill-rule:nonzero;fill:rgb(0%,0%,0%);fill-opacity:1;" d="M 56.109375 13.359375 C 55.265625 13.445312 54.886719 13.707031 54.304688 14.554688 C 53.894531 15.140625 53.574219 15.726562 53.574219 15.871094 C 53.574219 16.28125 51.128906 21.042969 50.925781 21.042969 C 50.839844 21.042969 50.402344 20.167969 49.9375 19.058594 C 47.578125 13.300781 47.722656 13.445312 44.722656 13.445312 C 41.695312 13.445312 41.40625 13.621094 42.191406 14.9375 C 42.714844 15.8125 42.800781 16.398438 42.800781 19.730469 C 42.800781 24.726562 41.898438 31.539062 40.96875 33.875 L 40.238281 35.660156 L 43.296875 35.660156 C 46.355469 35.660156 46.355469 35.660156 46.121094 34.988281 C 45.570312 33.554688 45.945312 22.507812 46.558594 22.507812 C 46.675781 22.507812 47.199219 23.472656 47.722656 24.667969 C 48.566406 26.597656 48.625 26.949219 48.363281 27.972656 C 47.839844 29.84375 47.957031 30.601562 49.003906 31.742188 C 50.316406 33.203125 51.917969 33.410156 53.226562 32.296875 C 53.984375 31.65625 54.160156 31.304688 54.160156 30.398438 C 54.160156 28.5 52.46875 27.445312 51.070312 28.5 C 50.285156 29.113281 50.082031 29.054688 50.082031 28.207031 C 50.082031 27.242188 50.722656 25.984375 52.265625 23.96875 C 53.632812 22.183594 54.390625 21.453125 54.625 21.6875 C 55.265625 22.332031 55.992188 32.882812 55.527344 34.695312 L 55.265625 35.660156 L 58.175781 35.660156 C 59.75 35.660156 61.117188 35.570312 61.234375 35.484375 C 61.320312 35.394531 61.089844 34.519531 60.710938 33.527344 C 59.835938 31.097656 59.398438 28.292969 59.167969 23.441406 C 58.933594 18.734375 59.167969 15.753906 59.835938 14.730469 C 60.097656 14.320312 60.273438 13.941406 60.214844 13.882812 C 59.398438 13.210938 58.613281 13.09375 56.109375 13.359375 Z M 56.109375 13.359375 "/>
<path style=" stroke:none;fill-rule:nonzero;fill:rgb(0%,0%,0%);fill-opacity:1;" d="M 13.570312 13.707031 C 13.453125 13.882812 13.597656 14.378906 13.890625 14.820312 C 14.355469 15.550781 14.414062 16.457031 14.414062 24.550781 C 14.414062 33.378906 14.414062 33.46875 13.742188 34.546875 C 13.363281 35.164062 13.160156 35.660156 13.308594 35.6875 C 15.257812 35.804688 27.398438 35.71875 27.867188 35.542969 C 28.214844 35.425781 28.796875 34.957031 29.117188 34.488281 C 29.613281 33.789062 29.699219 33.144531 29.757812 29.753906 C 29.84375 25.253906 29.640625 24.699219 27.691406 23.792969 C 26.320312 23.148438 26.207031 22.738281 27.226562 22.273438 C 28.390625 21.746094 28.914062 20.34375 28.769531 18.152344 C 28.621094 15.8125 28.097656 14.613281 26.933594 14.03125 C 25.855469 13.472656 13.859375 13.210938 13.570312 13.707031 Z M 23.933594 19.292969 C 24.285156 21.25 23.847656 21.949219 21.632812 23.179688 C 20.585938 23.792969 19.597656 24.261719 19.480469 24.261719 C 19.1875 24.261719 19.128906 20.109375 19.390625 18.734375 L 19.597656 17.800781 L 21.664062 17.886719 L 23.730469 17.976562 Z M 23.671875 24.960938 C 25.011719 25.515625 25.332031 26.304688 25.332031 28.9375 C 25.332031 31.714844 25.097656 31.917969 21.867188 31.800781 L 19.363281 31.714844 L 19.277344 30.75 C 19.1875 29.871094 19.246094 29.8125 20.089844 29.8125 C 22.011719 29.8125 23.265625 28.585938 22.886719 27.035156 C 22.742188 26.453125 22.507812 26.335938 21.488281 26.246094 C 20.148438 26.160156 19.710938 25.515625 20.410156 24.667969 C 20.847656 24.144531 21.984375 24.230469 23.671875 24.960938 Z M 23.671875 24.960938 "/>
<path style=" stroke:none;fill-rule:nonzero;fill:rgb(0%,0%,0%);fill-opacity:1;" d="M 75.792969 13.648438 C 73.988281 13.707031 72.503906 13.855469 72.503906 13.972656 C 72.53125 14.089844 72.707031 14.496094 72.9375 14.90625 C 73.289062 15.492188 73.347656 17.390625 73.375 24.609375 C 73.375 29.519531 73.289062 33.613281 73.171875 33.671875 C 72.792969 33.816406 71.921875 35.570312 72.125 35.777344 C 72.355469 36.011719 78.472656 36.011719 78.703125 35.777344 C 78.792969 35.660156 78.617188 35.074219 78.324219 34.460938 C 78.003906 33.847656 77.742188 32.96875 77.742188 32.503906 C 77.742188 31.742188 77.859375 31.597656 78.851562 31.421875 C 80.363281 31.128906 80.945312 30.515625 80.945312 29.171875 C 80.945312 28.207031 80.800781 27.941406 80.074219 27.535156 C 78.996094 26.917969 78.9375 26.128906 79.957031 25.898438 C 81.441406 25.515625 82.140625 26.394531 83.21875 29.960938 C 84.265625 33.527344 84.992188 36.070312 85.253906 37.121094 L 85.488281 38.144531 L 88.253906 38.289062 C 89.769531 38.378906 91.109375 38.378906 91.253906 38.261719 C 91.371094 38.144531 91.078125 37.441406 90.554688 36.710938 C 90.058594 35.953125 89.390625 34.78125 89.070312 34.050781 C 88.777344 33.351562 88.398438 32.734375 88.253906 32.679688 C 87.964844 32.5625 86.042969 27.152344 85.78125 25.632812 C 85.605469 24.640625 85.691406 24.40625 86.59375 23.324219 L 87.644531 22.097656 L 87.644531 18.910156 C 87.644531 15.609375 87.265625 14.320312 86.214844 13.855469 C 85.632812 13.621094 80.132812 13.503906 75.792969 13.648438 Z M 82.519531 18.003906 C 82.898438 18.152344 82.984375 18.648438 82.984375 20.371094 C 82.984375 22.359375 82.925781 22.59375 82.199219 23.296875 C 81.265625 24.144531 78.644531 25.722656 78.121094 25.722656 C 77.832031 25.722656 77.742188 24.785156 77.742188 21.980469 C 77.742188 19.90625 77.832031 18.121094 77.945312 18.035156 C 78.179688 17.769531 81.90625 17.769531 82.519531 18.003906 Z M 82.519531 18.003906 "/>
<path style=" stroke:none;fill-rule:nonzero;fill:rgb(0%,0%,0%);fill-opacity:1;" d="M 200.445312 20.023438 C 200.183594 20.664062 200.707031 21.101562 201.519531 20.984375 C 201.988281 20.929688 202.21875 20.695312 202.21875 20.3125 C 202.21875 19.554688 200.707031 19.292969 200.445312 20.023438 Z M 200.445312 20.023438 "/>
<path style=" stroke:none;fill-rule:nonzero;fill:rgb(0%,0%,0%);fill-opacity:1;" d="M 200.617188 25.136719 C 200.617188 25.722656 200.765625 25.75 203.179688 25.664062 C 205.191406 25.605469 205.714844 25.488281 205.714844 25.136719 C 205.714844 24.785156 205.191406 24.667969 203.179688 24.609375 C 200.765625 24.523438 200.617188 24.550781 200.617188 25.136719 Z M 200.617188 25.136719 "/>
<path style=" stroke:none;fill-rule:nonzero;fill:rgb(0%,0%,0%);fill-opacity:1;" d="M 176.828125 18.765625 C 176.539062 19.175781 176.566406 21.101562 176.886719 21.601562 C 176.976562 21.777344 177.703125 21.921875 178.519531 21.921875 C 179.683594 21.921875 179.945312 21.832031 179.945312 21.394531 C 179.972656 21.132812 180.351562 20.429688 180.820312 19.875 C 181.3125 19.320312 181.691406 18.765625 181.691406 18.648438 C 181.691406 18.238281 177.121094 18.386719 176.828125 18.765625 Z M 176.828125 18.765625 "/>
</g>
</svg>
