<?xml version="1.0" standalone="no"?>
<!DOCTYPE svg PUBLIC "-//W3C//DTD SVG 20010904//EN"
 "http://www.w3.org/TR/2001/REC-SVG-20010904/DTD/svg10.dtd">
<svg version="1.0" xmlns="http://www.w3.org/2000/svg"
 width="879.000000pt" height="161.000000pt" viewBox="0 0 879.000000 161.000000"
 preserveAspectRatio="xMidYMid meet">

<g transform="translate(0.000000,161.000000) scale(0.100000,-0.100000)"
fill="#000000" stroke="none">
<path d="M5358 1444 c-3 -2 -1120 -5 -2484 -6 -1363 -1 -2541 -3 -2616 -5
l-138 -4 0 -675 0 -674 2928 -2 c1610 -1 3508 -2 4217 -2 l1290 -1 3 688 2
688 -1599 -1 c-879 -1 -1601 -3 -1603 -6z m-2428 -57 c151 0 333 3 405 4 l130
4 7 -60 c4 -32 7 -315 5 -628 l-2 -569 -1642 -1 c-903 -1 -1645 2 -1650 7 -4
4 -8 286 -9 627 l-1 618 116 4 c64 2 622 1 1241 -2 619 -3 1249 -5 1400 -4z
m3955 -268 c-19 -58 47 -86 68 -29 19 51 57 51 57 -1 0 -24 4 -29 25 -29 20 0
25 5 25 24 0 37 10 56 30 56 22 0 29 -26 23 -84 l-6 -46 -46 -1 c-25 0 -65 0
-88 1 -24 1 -43 -3 -43 -8 0 -11 20 -14 108 -16 66 -1 72 -2 72 -22 0 -17 -10
-24 -52 -35 -71 -19 -73 -37 -6 -41 46 -3 53 -6 56 -25 3 -20 -1 -23 -30 -24
-27 -1 -28 -3 -8 -6 36 -6 50 -30 50 -85 0 -76 -19 -88 -136 -88 -86 0 -95 -2
-92 -17 3 -16 13 -18 80 -14 90 4 134 -4 142 -26 12 -31 -12 -38 -113 -35 -54
2 -101 0 -104 -5 -2 -4 -8 -37 -12 -71 -7 -63 -7 -64 16 -60 19 2 25 10 27 35
5 46 21 54 99 51 l68 -3 3 -57 c2 -47 0 -58 -13 -58 -11 0 -15 10 -15 35 0 63
-63 59 -66 -4 -1 -18 -5 -35 -9 -39 -3 -4 -39 -8 -80 -10 -92 -5 -99 4 -90
116 4 42 8 130 9 194 1 65 6 122 12 128 5 5 45 11 89 13 l80 3 -87 2 -86 2 -4
52 c-4 64 9 92 45 96 15 2 27 8 27 13 0 6 -4 8 -9 5 -5 -4 -20 -2 -34 3 -33
13 -48 93 -22 121 21 23 48 15 40 -11z m-1736 12 c16 -9 17 -29 13 -261 -4
-272 -1 -311 29 -341 28 -28 111 -21 167 14 19 13 16 451 -4 489 -21 41 -84
51 -84 13 0 -7 12 -15 27 -17 19 -2 32 -12 42 -32 37 -79 -83 -135 -124 -56
-34 66 -9 132 64 168 40 20 59 23 136 20 l90 -3 5 -330 c5 -324 5 -331 28
-367 13 -21 21 -41 18 -46 -3 -5 -39 -9 -81 -10 -69 -2 -78 0 -98 22 -18 19
-26 22 -41 14 -32 -18 -119 -38 -167 -38 -50 0 -98 26 -132 71 -26 36 -34 123
-24 254 4 61 9 162 10 225 2 102 -1 120 -20 158 -13 23 -23 45 -23 47 0 2 30
6 68 8 37 2 71 4 75 5 5 1 16 -2 26 -7z m1281 1 c0 -3 -29 -44 -65 -92 -36
-48 -65 -93 -65 -100 0 -6 -9 -24 -21 -38 l-21 -27 45 -6 c55 -9 82 -23 103
-54 14 -22 15 -47 9 -193 -11 -260 -8 -257 -302 -247 l-203 7 0 109 c0 119 9
134 45 77 25 -40 71 -56 157 -57 68 -1 117 11 130 32 13 20 9 132 -5 151 -15
21 -88 19 -95 -3 -3 -9 2 -11 17 -6 15 4 28 -1 46 -19 32 -32 32 -57 -1 -90
-35 -34 -82 -35 -114 -1 -20 21 -22 31 -17 79 l5 55 -61 7 c-44 5 -67 13 -84
30 -22 22 -23 30 -23 169 0 84 5 155 11 166 5 11 25 29 42 40 30 18 49 19 250
17 119 -1 217 -4 217 -6z m1300 -12 c0 -11 -6 -20 -13 -20 -26 0 -37 -50 -37
-165 0 -63 3 -115 8 -115 8 0 65 88 117 184 32 57 36 72 27 87 -7 10 -12 22
-12 26 0 5 48 9 106 10 l105 3 -55 -53 c-30 -29 -58 -65 -62 -81 -13 -53 54
-228 193 -506 l53 -105 -107 -3 c-59 -1 -112 -1 -119 2 -9 3 -11 16 -8 38 6
37 -10 102 -55 223 -47 128 -69 175 -83 175 -14 0 -33 -26 -49 -67 -9 -25 -8
-25 21 -19 25 4 36 1 56 -19 60 -60 -6 -158 -90 -134 -17 5 -34 9 -38 9 -16 0
-7 -106 12 -149 11 -24 20 -47 20 -52 0 -5 -49 -9 -110 -9 -60 0 -110 2 -110
4 0 2 9 23 20 47 16 36 20 66 20 167 0 71 -4 122 -10 122 -5 0 -11 75 -13 183
-1 100 -7 192 -11 204 -10 27 -1 29 127 32 91 1 97 0 97 -19z m-3545 -55 c29
-79 83 -185 93 -185 5 0 31 44 58 98 27 53 55 103 62 110 6 7 12 18 12 23 0 5
36 9 80 9 79 0 91 -5 68 -28 -16 -16 -22 -204 -9 -347 10 -121 28 -221 54
-307 l15 -48 -26 -1 c-15 0 -58 -3 -95 -5 l-69 -5 8 43 c10 58 6 157 -11 308
-8 69 -15 128 -15 133 0 20 -25 1 -76 -60 -57 -70 -79 -111 -87 -163 -6 -34 0
-36 40 -13 25 14 32 14 58 2 25 -12 30 -21 33 -56 7 -92 -95 -128 -164 -59
-37 37 -41 59 -23 131 11 42 9 50 -22 115 -31 63 -47 83 -50 63 -6 -31 -9 -66
-17 -198 -9 -122 -8 -157 4 -190 7 -22 14 -43 14 -47 0 -5 -45 -8 -100 -8 -55
0 -100 2 -100 5 0 2 11 37 24 77 26 79 40 160 56 333 16 172 13 244 -10 283
-11 18 -20 37 -20 43 0 6 36 9 96 7 l96 -3 23 -60z"/>
<path d="M1927 1153 c-29 -3 -42 -12 -62 -41 -14 -20 -25 -40 -25 -45 0 -14
-84 -177 -91 -177 -3 0 -18 30 -34 68 -81 197 -76 192 -179 192 -104 0 -114
-6 -87 -51 18 -30 21 -50 21 -164 0 -171 -31 -404 -63 -484 l-25 -61 105 0
c105 0 105 0 97 23 -19 49 -6 427 15 427 4 0 22 -33 40 -74 29 -66 31 -78 22
-113 -18 -64 -14 -90 22 -129 45 -50 100 -57 145 -19 26 22 32 34 32 65 0 65
-58 101 -106 65 -27 -21 -34 -19 -34 10 0 33 22 76 75 145 47 61 73 86 81 78
22 -22 47 -383 31 -445 l-9 -33 100 0 c54 0 101 3 105 6 3 3 -5 33 -18 67 -30
83 -45 179 -53 345 -8 161 0 263 23 298 9 14 15 27 13 29 -28 23 -55 27 -141
18z"/>
<path d="M466 1141 c-4 -6 1 -23 11 -38 16 -25 18 -56 18 -333 0 -302 0 -305
-23 -342 -13 -21 -20 -38 -15 -39 67 -4 484 -1 500 5 12 4 32 20 43 36 17 24
20 46 22 162 3 154 -4 173 -71 204 -47 22 -51 36 -16 52 40 18 58 66 53 141
-5 80 -23 121 -63 141 -37 19 -449 28 -459 11z m356 -191 c12 -67 -3 -91 -79
-133 -36 -21 -70 -37 -74 -37 -10 0 -12 142 -3 189 l7 32 71 -3 71 -3 7 -45z
m-9 -194 c46 -19 57 -46 57 -136 0 -95 -8 -102 -119 -98 l-86 3 -3 33 c-3 30
-1 32 28 32 66 0 109 42 96 95 -5 20 -13 24 -48 27 -46 3 -61 25 -37 54 15 18
54 15 112 -10z"/>
<path d="M2603 1143 c-62 -2 -113 -7 -113 -11 1 -4 7 -18 15 -32 12 -20 14
-85 15 -332 0 -168 -3 -308 -7 -310 -13 -5 -43 -65 -36 -72 8 -8 218 -8 226 0
3 4 -3 24 -13 45 -11 21 -20 51 -20 67 0 26 4 31 38 37 52 10 72 31 72 77 0
33 -5 42 -30 56 -37 21 -39 48 -4 56 51 13 75 -17 112 -139 36 -122 61 -209
70 -245 l8 -35 95 -5 c52 -3 98 -3 103 1 4 4 -6 28 -24 53 -17 26 -40 66 -51
91 -10 24 -23 45 -28 47 -10 4 -76 189 -85 241 -6 34 -3 42 28 79 l36 42 0
109 c0 113 -13 157 -49 173 -20 8 -209 12 -358 7z m231 -149 c13 -5 16 -22 16
-81 0 -68 -2 -76 -27 -100 -32 -29 -122 -83 -140 -83 -10 0 -13 32 -13 128 0
71 3 132 7 135 8 9 136 9 157 1z"/>
<path d="M6884 925 c-9 -22 9 -37 37 -33 16 2 24 10 24 23 0 26 -52 35 -61 10z"/>
<path d="M6890 750 c0 -20 5 -21 88 -18 69 2 87 6 87 18 0 12 -18 16 -87 18
-83 3 -88 2 -88 -18z"/>
<path d="M6073 968 c-10 -14 -9 -80 2 -97 3 -6 28 -11 56 -11 40 0 49 3 49 18
1 9 14 33 30 52 17 19 30 38 30 42 0 14 -157 9 -167 -4z"/>
</g>
</svg>
